HIERARCHY
ROOT hip
{
	OFFSET 0.000000 0.000000 0.000000
	CHANNELS 6 Xposition Yposition Zposition Xrotation Zrotation Yrotation 
	JOINT abdomen
	{
		OFFSET 0.000000 3.422050 0.000000
		CHANNELS 3 Xrotation Zrotation Yrotation 
		JOINT chest
		{
			OFFSET 0.000000 8.486693 -0.6844110
			CHANNELS 3 Xrotation Zrotation Yrotation 
			JOINT neck
			{
				OFFSET 0.000000 10.26616 -0.2737640
				CHANNELS 3 Xrotation Zrotation Yrotation 
				JOINT head
				{
					OFFSET 0.000000 3.148285 0.000000
					CHANNELS 3 Xrotation Zrotation Yrotation 
					End Site
					{
						OFFSET 0.000000 3.148289 0.000000
					}
				}
			}
			JOINT lCollar
			{
				OFFSET 3.422053 6.707223 -0.8212930
				CHANNELS 3 Yrotation Zrotation Xrotation 
				JOINT lShldr
				{
					OFFSET 3.285171 0.000000 0.000000
					CHANNELS 3 Zrotation Yrotation Xrotation 
					JOINT lForeArm
					{
						OFFSET 10.12928 0.000000 0.000000
						CHANNELS 3 Yrotation Zrotation Xrotation 
						JOINT lHand
						{
							OFFSET 8.486692 0.000000 0.000000
							CHANNELS 3 Zrotation Yrotation Xrotation 
							End Site
							{
								OFFSET 4.106464 0.000000 0.000000
							}
						}
					}
				}
			}
			JOINT rCollar
			{
				OFFSET -3.558935 6.707223 -0.8212930
				CHANNELS 3 Yrotation Zrotation Xrotation 
				JOINT rShldr
				{
					OFFSET -3.148289 0.000000 0.000000
					CHANNELS 3 Zrotation Yrotation Xrotation 
					JOINT rForeArm
					{
						OFFSET -10.26616 0.000000 0.000000
						CHANNELS 3 Yrotation Zrotation Xrotation 
						JOINT rHand
						{
							OFFSET -8.349810 0.000000 0.000000
							CHANNELS 3 Zrotation Yrotation Xrotation 
							End Site
							{
								OFFSET -4.106464 0.000000 0.000000
							}
						}
					}
				}
			}
		}
	}
	JOINT lThigh
	{
		OFFSET 5.338403 -1.642589 1.368821
		CHANNELS 3 Xrotation Zrotation Yrotation 
		JOINT lShin
		{
			OFFSET -2.053232 -20.12167 0.000000
			CHANNELS 3 Xrotation Zrotation Yrotation 
			JOINT lFoot
			{
				OFFSET 0.000000 -19.30038 -1.231939
				CHANNELS 3 Xrotation Yrotation Zrotation 
				End Site
				{
					OFFSET 0.000000 -2.463878 4.653993
				}
			}
		}
	}
	JOINT rThigh
	{
		OFFSET -5.338403 -1.642589 1.368821
		CHANNELS 3 Xrotation Zrotation Yrotation 
		JOINT rShin
		{
			OFFSET 2.053232 -20.12167 0.000000
			CHANNELS 3 Xrotation Zrotation Yrotation 
			JOINT rFoot
			{
				OFFSET 0.000000 -19.30038 -1.231939
				CHANNELS 3 Xrotation Yrotation Zrotation 
				End Site
				{
					OFFSET 0.000000 -2.463878 4.653993
				}
			}
		}
	}
}
MOTION
Frames:	7
Frame Time:	0.03333333
0.000000 46.00000 0.000000 0.000000 0.000000 45.00000 1.000000 0.000000 0.000000 1.000000 0.000000 0.000000 1.000000 0.000000 0.000000 -77.00000 0.000000 2.000000 0.000000 0.000000 1.000000 -66.00000 -8.000000 -8.000000 -14.00000 0.000000 0.000000 0.000000 0.000000 1.000000 0.000000 0.000000 1.000000 68.00000 11.00000 0.000000 102.0000 0.000000 0.000000 22.00000 0.000000 0.000000 -13.00000 0.000000 0.000000 23.00000 0.000000 0.000000 19.00000 0.000000 0.000000 -25.00000 -26.00000 -32.00000 56.00000 0.000000 0.000000 -11.00000 0.000000 0.000000 
0.000000 46.00000 0.000000 0.000000 0.000000 45.00000 1.000000 0.000000 0.000000 1.000000 0.000000 0.000000 1.000000 0.000000 0.000000 -77.00000 0.000000 2.000000 0.000000 0.000000 1.000000 -66.00000 -8.000000 -8.000000 -14.00000 0.000000 0.000000 0.000000 0.000000 1.000000 0.000000 0.000000 1.000000 68.00000 11.00000 0.000000 102.0000 0.000000 0.000000 22.00000 0.000000 0.000000 -13.00000 0.000000 0.000000 23.00000 0.000000 0.000000 19.00000 0.000000 0.000000 -25.00000 -26.00000 -32.00000 56.00000 0.000000 0.000000 -11.00000 0.000000 0.000000 
0.000000 46.00000 0.000000 0.000000 0.000000 45.00000 1.000000 0.000000 0.000000 1.000000 0.000000 0.000000 1.000000 0.000000 0.000000 -77.00000 0.000000 2.000000 0.000000 0.000000 1.000000 -66.00000 -8.000000 -8.000000 -14.00000 0.000000 0.000000 0.000000 0.000000 1.000000 0.000000 0.000000 1.000000 68.00000 11.00000 0.000000 102.0000 0.000000 0.000000 22.00000 0.000000 0.000000 -13.00000 0.000000 0.000000 23.00000 0.000000 0.000000 19.00000 0.000000 0.000000 -25.00000 -26.00000 -32.00000 56.00000 0.000000 0.000000 -11.00000 0.000000 0.000000 
0.000000 46.00000 0.000000 0.000000 0.000000 45.00000 1.000000 0.000000 0.000000 1.000000 0.000000 0.000000 1.000000 0.000000 0.000000 -77.00000 0.000000 2.000000 0.000000 0.000000 1.000000 -66.00000 -8.000000 -8.000000 -14.00000 0.000000 0.000000 0.000000 0.000000 1.000000 0.000000 0.000000 1.000000 68.00000 11.00000 0.000000 102.0000 0.000000 0.000000 22.00000 0.000000 0.000000 -13.00000 0.000000 0.000000 23.00000 0.000000 0.000000 19.00000 0.000000 0.000000 -25.00000 -26.00000 -32.00000 56.00000 0.000000 0.000000 -11.00000 0.000000 0.000000 
0.000000 40.00000 0.000000 0.000000 180.0000 45.00000 1.000000 0.000000 0.000000 1.000000 0.000000 0.000000 1.000000 0.000000 0.000000 1.000000 0.000000 0.000000 0.000000 0.000000 1.000000 -75.00000 16.00000 30.00000 -26.00000 0.000000 0.000000 0.000000 0.000000 1.000000 0.000000 0.000000 1.000000 75.00000 -19.00000 31.00000 26.00000 0.000000 0.000000 0.000000 0.000000 1.000000 11.00000 10.00000 0.000000 19.00000 0.000000 0.000000 22.00000 0.000000 0.000000 10.00000 -10.00000 0.000000 19.00000 0.000000 0.000000 20.00000 0.000000 0.000000 
0.000000 40.00000 0.000000 0.000000 180.0000 45.00000 1.000000 0.000000 0.000000 1.000000 0.000000 0.000000 1.000000 0.000000 0.000000 1.000000 0.000000 0.000000 0.000000 0.000000 1.000000 -75.00000 16.00000 30.00000 -26.00000 0.000000 0.000000 0.000000 0.000000 1.000000 0.000000 0.000000 1.000000 75.00000 -19.00000 31.00000 26.00000 0.000000 0.000000 0.000000 0.000000 1.000000 11.00000 10.00000 0.000000 19.00000 0.000000 0.000000 22.00000 0.000000 0.000000 10.00000 -10.00000 0.000000 19.00000 0.000000 0.000000 20.00000 0.000000 0.000000 
0.000000 40.00000 0.000000 0.000000 180.0000 45.00000 1.000000 0.000000 0.000000 1.000000 0.000000 0.000000 1.000000 0.000000 0.000000 1.000000 0.000000 0.000000 0.000000 0.000000 1.000000 -75.00000 16.00000 30.00000 -26.00000 0.000000 0.000000 0.000000 0.000000 1.000000 0.000000 0.000000 1.000000 75.00000 -19.00000 31.00000 26.00000 0.000000 0.000000 0.000000 0.000000 1.000000 11.00000 10.00000 0.000000 19.00000 0.000000 0.000000 22.00000 0.000000 0.000000 10.00000 -10.00000 0.000000 19.00000 0.000000 0.000000 20.00000 0.000000 0.000000 
